<?xml version="1.0" standalone="no"?>
<!DOCTYPE svg PUBLIC "-//W3C//DTD SVG 20010904//EN"
 "http://www.w3.org/TR/2001/REC-SVG-20010904/DTD/svg10.dtd">
<svg version="1.0" xmlns="http://www.w3.org/2000/svg"
 width="516.000000pt" height="516.000000pt" viewBox="0 0 516.000000 516.000000"
 preserveAspectRatio="xMidYMid meet">
<metadata>
Created by potrace 1.11, written by Peter Selinger 2001-2013
</metadata>
<g transform="translate(0.000000,516.000000) scale(0.100000,-0.100000)"
fill="#000000" stroke="none">
<path d="M2399 5156 c-2 -2 -35 -6 -74 -10 -38 -3 -79 -7 -90 -9 -11 -3 -41
-7 -66 -11 -251 -37 -544 -134 -789 -263 -476 -250 -869 -653 -1107 -1133
-187 -378 -267 -719 -268 -1140 0 -254 14 -390 65 -605 81 -341 238 -675 448
-953 142 -188 316 -364 492 -498 36 -27 67 -52 70 -55 3 -3 10 -8 15 -10 6 -2
49 -30 97 -62 185 -123 458 -246 688 -310 94 -27 196 -49 275 -61 28 -4 61
-10 75 -12 102 -19 467 -25 605 -11 199 20 421 69 585 129 47 17 103 37 125
45 22 8 103 45 180 83 333 163 660 428 873 705 25 33 49 62 52 65 23 18 170
257 223 360 147 289 233 574 271 900 12 105 14 481 3 550 -2 14 -7 50 -11 80
-29 217 -93 450 -181 660 -32 75 -143 290 -175 337 -17 24 -30 46 -30 49 0 5
-89 129 -143 199 -78 101 -220 250 -337 353 -176 157 -463 336 -685 429 -64
26 -251 93 -273 98 -9 1 -42 10 -72 18 -30 9 -91 23 -135 32 -44 9 -88 18 -97
20 -9 2 -48 7 -85 10 -37 4 -72 10 -77 13 -9 5 -442 13 -447 8z"/>
</g>
</svg>
